<?xml version="1.0" standalone="no"?>
<!DOCTYPE svg PUBLIC "-//W3C//DTD SVG 20010904//EN"
 "http://www.w3.org/TR/2001/REC-SVG-20010904/DTD/svg10.dtd">
<svg version="1.0" xmlns="http://www.w3.org/2000/svg"
 width="300.000000pt" height="300.000000pt" viewBox="0 0 300.000000 300.000000"
 preserveAspectRatio="xMidYMid meet">
<metadata>
Created by potrace 1.14, written by Peter Selinger 2001-2017
</metadata>
<g transform="translate(0.000000,300.000000) scale(0.100000,-0.100000)"
fill="#000000" stroke="none">
<path d="M25 2092 c-3 -3 -5 -182 -5 -399 l0 -393 75 1 c62 1 75 4 76 17 0 10
1 119 1 244 0 125 4 225 9 223 4 -3 66 -92 136 -198 70 -105 130 -194 133
-197 3 -3 18 -24 34 -47 l28 -42 69 0 c68 1 69 1 70 27 3 186 -1 755 -6 760
-4 4 -37 7 -73 7 l-67 0 -5 -246 -5 -246 -148 221 c-201 300 -173 270 -251
271 -37 1 -68 -1 -71 -3z"/>
<path d="M774 2089 c-2 -3 -3 -182 -3 -397 l0 -392 220 0 219 0 0 75 c0 53 -4
75 -12 76 -7 1 -71 2 -142 3 l-130 1 -1 83 c0 50 3 82 10 83 5 0 70 1 143 2
l132 0 0 76 0 77 -132 -1 c-73 -1 -137 0 -143 2 -8 2 -13 135 -6 163 0 3 64 5
141 4 l140 -1 0 77 0 76 -216 0 c-119 -1 -217 -4 -220 -7z"/>
<path d="M2511 2072 c-7 -13 -72 -176 -146 -361 -74 -185 -141 -353 -150 -374
l-16 -38 84 2 84 2 30 71 29 71 150 3 150 2 31 -72 31 -73 81 -3 c45 -2 81 0
81 4 0 6 -154 394 -192 484 -6 14 -36 88 -67 165 l-56 140 -57 1 c-50 1 -57
-2 -67 -24z m115 -367 c22 -54 41 -103 42 -107 2 -4 -37 -8 -87 -8 -50 0 -91
3 -91 7 0 19 86 221 91 215 4 -4 24 -52 45 -107z"/>
<path d="M1307 2023 c47 -68 165 -231 222 -309 24 -34 27 -44 17 -55 -16 -17
-236 -344 -236 -351 0 -2 19 -5 43 -6 l42 -3 55 83 c30 46 57 85 60 88 3 3 36
51 74 107 l68 101 -116 161 c-64 89 -116 162 -116 164 0 2 114 1 136 -2 7 0
45 -48 85 -106 41 -57 77 -105 80 -105 3 0 15 14 28 30 l22 30 -32 48 c-18 26
-57 80 -86 120 l-53 72 -171 0 -170 0 48 -67z"/>
<path d="M2013 2073 c-6 -10 -63 -94 -127 -187 l-115 -170 43 -60 c23 -34 75
-107 114 -162 40 -56 72 -104 72 -106 0 -2 -31 -3 -70 -3 l-69 0 -44 60 c-24
33 -60 84 -80 113 l-36 53 -24 -37 -25 -36 86 -119 85 -119 169 0 c160 0 168
1 159 18 -5 10 -68 99 -138 198 -71 98 -132 184 -136 191 -5 7 42 86 118 198
l126 185 -48 0 c-35 0 -51 -5 -60 -17z"/>
<path d="M778 1262 c-3 -13 -2 -306 1 -347 1 -5 17 -10 36 -10 l35 -1 0 121 1
120 30 -85 c17 -47 36 -101 43 -120 10 -26 19 -34 39 -35 28 -2 31 5 110 215
3 8 6 -37 6 -100 l1 -116 35 0 c32 0 35 3 36 31 1 32 1 298 0 328 -1 15 -8 18
-48 15 l-46 -3 -24 -65 c-13 -36 -32 -89 -43 -119 -11 -30 -21 -56 -24 -58 -2
-2 -14 22 -25 54 -12 32 -33 88 -47 124 l-25 66 -43 1 c-34 1 -45 -3 -48 -16z"/>
<path d="M1724 1215 c-2 -5 -4 -21 -6 -35 -2 -19 -9 -25 -28 -25 -21 0 -25 -5
-27 -32 -1 -30 1 -33 27 -33 l29 0 3 -92 c3 -100 2 -98 61 -89 4 0 7 42 7 91
l0 90 29 0 c27 0 29 3 28 33 -2 27 -6 32 -27 32 -22 0 -25 5 -28 36 -3 34 -5
37 -34 35 -17 0 -32 -5 -34 -11z"/>
<path d="M1263 1140 c-44 -26 -63 -59 -63 -105 0 -79 57 -136 130 -131 112 8
163 130 88 212 -41 44 -106 54 -155 24z m101 -65 c23 -17 26 -72 5 -86 -48
-31 -99 -11 -99 39 0 52 53 78 94 47z"/>
<path d="M1494 1151 c-7 -8 -4 -241 4 -242 57 -9 57 -9 60 76 3 88 12 105 52
105 25 0 27 3 26 33 l-2 32 -68 0 c-37 0 -70 -2 -72 -4z"/>
<path d="M1922 1143 c-63 -32 -84 -101 -52 -168 30 -62 114 -95 158 -62 21 16
14 -18 -8 -38 -22 -19 -66 -23 -82 -7 -8 8 -16 4 -29 -13 -25 -31 -24 -34 14
-50 62 -26 131 -1 167 58 17 27 20 51 20 162 l0 130 -80 1 c-49 0 -92 -5 -108
-13z m100 -70 c22 -20 23 -51 2 -81 -19 -28 -57 -29 -84 -2 -55 55 24 135 82
83z"/>
<path d="M2225 1150 c-48 -18 -88 -87 -79 -137 14 -76 62 -108 164 -108 41 0
80 1 85 2 12 4 13 228 1 240 -10 11 -56 11 -56 1 0 -5 -5 -6 -12 -2 -17 11
-79 13 -103 4z m87 -77 c37 -33 11 -103 -38 -103 -13 0 -33 10 -44 22 -50 54
27 131 82 81z"/>
<path d="M2530 1152 c-66 -22 -100 -88 -81 -159 16 -59 59 -88 128 -87 52 1
53 1 39 -20 -11 -17 -24 -21 -63 -21 -33 0 -55 -6 -66 -17 -17 -16 -16 -18 9
-34 60 -40 150 -11 185 59 17 32 19 55 17 159 l-3 121 -75 2 c-41 1 -82 0 -90
-3z m80 -82 c11 -11 20 -29 20 -40 0 -28 -35 -60 -64 -60 -27 0 -56 33 -56 62
0 24 35 58 60 58 11 0 29 -9 40 -20z"/>
<path d="M2811 1149 c-57 -22 -90 -94 -71 -158 9 -33 51 -80 73 -82 62 -7 96
-5 120 7 31 16 33 23 13 49 -11 16 -18 17 -37 9 -27 -13 -66 -9 -86 7 -24 21
-13 27 50 27 107 -1 100 -4 94 48 -6 59 -39 94 -93 99 -21 2 -50 -1 -63 -6z
m75 -64 c25 -20 6 -32 -41 -27 -38 5 -45 15 -17 31 24 14 35 13 58 -4z"/>
</g>
</svg>
